PathFileType   4   (X/Y/Z)
DataRate	CameraRate	NumFrames	NumMarkers	Units	OrigDataRate	OrigDataStartFrame	OrigNumFrames
120.0	120.0	6	37	mm	120.0	15	118
Frame#	Time	midhip	hip_r	hip_l	knee_r	knee_l	ankle_r	ankle_l	midasis	asis_r	asis_l	psis_r	psis_l	epicondLat_r	epicondLat_l	epicondMed_r	epicondMed_l	malleolusLat_r	malleolusLat_l	malleolusMedv_r	malleolusMedv_l	neck	subclavicle_r	subclavicle_l	sternalnotch	xyphoidprocess	thighwand_r	thighwand_l	upperleg1_r	upperleg1_l	upperleg2_r	upperleg2_l	shankwand_r	shankwand_l	lowerleg1_r	lowerleg1_l	toe_r	toe_l
 	 	X1	Y1	Z1	X2	Y2	Z2	X3	Y3	Z3	X4	Y4	Z4	X5	Y5	Z5	X6	Y6	Z6	X7	Y7	Z7	X8	Y8	Z8	X9	Y9	Z9	X10	Y10	Z10	X11	Y11	Z11	X12	Y12	Z12	X13	Y13	Z13	X14	Y14	Z14	X15	Y15	Z15	X16	Y16	Z16	X17	Y17	Z17	X18	Y18	Z18	X19	Y19	Z19	X20	Y20	Z20	X21	Y21	Z21	X22	Y22	Z22	X23	Y23	Z23	X24	Y24	Z24	X25	Y25	Z25	X26	Y26	Z26	X27	Y27	Z27	X28	Y28	Z28	X29	Y29	Z29	X30	Y30	Z30	X31	Y31	Z31	X32	Y32	Z32	X33	Y33	Z33	X34	Y34	Z34	X35	Y35	Z35	X36	Y36	Z36	X37	Y37	Z37

	15	0.24167	1245.956	896.795	-195.950	1249.277	879.263	-130.643	1238.896	876.499	-280.689	1303.327	474.075	-129.267	1314.692	463.244	-294.620	1282.689	69.159	-153.568	1030.254	190.868	-284.610	1330.135	964.799	-213.220	1338.385	966.996	-93.965	1321.884	962.602	-332.476	1145.826	1006.717	-164.008	1145.291	1000.955	-249.743	1317.741	476.190	-72.610	1307.768	463.915	-352.201	1275.553	476.289	-181.279	1340.675	455.461	-234.201	1275.421	67.172	-114.284	1013.118	207.632	-315.372	1291.047	84.699	-181.155	1045.017	195.523	-259.252	1132.293	1427.728	-180.876	1260.979	1350.130	-136.110	1268.111	1363.132	-242.900	1247.069	1363.818	-187.052	1332.801	1203.862	-212.462	1358.669	580.147	-1.378	1460.872	577.998	-327.140	1356.188	649.131	-65.128	1376.097	619.578	-349.965	1358.673	563.505	-92.786	1373.292	531.282	-341.645	1312.786	192.619	-22.484	1116.669	296.424	-404.921	1291.569	164.776	-95.855	1087.882	273.312	-332.216	1407.108	40.425	-138.521	1067.819	79.357	-315.930
	16	0.25000	1255.461	898.393	-195.722	1258.200	879.991	-130.366	1248.204	878.103	-280.451	1306.522	474.184	-129.378	1333.367	466.009	-294.307	1283.184	69.136	-153.931	1054.740	187.767	-284.507	1339.355	965.922	-212.239	1347.297	967.422	-92.986	1331.412	964.422	-331.493	1154.878	1007.782	-163.562	1154.652	1002.427	-249.317	1320.768	476.018	-72.669	1326.330	466.491	-351.877	1278.961	477.320	-182.340	1359.173	459.100	-233.506	1275.761	67.184	-114.675	1037.211	204.239	-315.205	1291.716	84.687	-181.410	1069.738	192.654	-259.232	1142.065	1428.859	-180.088	1270.831	1351.056	-136.197	1278.381	1364.208	-242.925	1257.019	1364.918	-186.789	1342.769	1204.817	-212.489	1362.823	579.602	-1.242	1476.878	583.757	-327.143	1361.734	648.446	-65.215	1391.306	623.663	-349.769	1363.015	562.955	-93.146	1390.060	535.122	-341.227	1313.651	192.327	-22.704	1138.644	295.255	-404.603	1292.601	164.906	-95.868	1110.963	271.720	-331.447	1407.384	40.332	-138.642	1096.467	78.509	-317.243
	17	0.25833	1264.733	899.695	-195.462	1267.115	880.575	-130.090	1257.543	879.575	-280.211	1309.595	474.222	-129.429	1351.694	468.728	-293.906	1283.727	69.132	-154.307	1079.764	183.987	-284.450	1348.565	966.923	-211.228	1356.166	967.717	-92.015	1340.964	966.128	-330.440	1163.818	1008.665	-163.160	1164.003	1003.777	-248.935	1323.653	475.784	-72.665	1344.620	469.025	-351.472	1281.653	478.763	-183.388	1377.213	461.979	-233.926	1276.107	67.210	-115.086	1061.823	200.103	-315.099	1292.273	84.678	-182.005	1094.918	189.467	-259.053	1152.042	1429.880	-179.400	1280.463	1351.957	-135.870	1287.894	1365.302	-242.786	1266.900	1365.885	-186.449	1352.059	1205.743	-212.613	1366.831	579.010	-1.053	1492.553	589.398	-326.863	1366.953	647.652	-64.965	1405.974	627.521	-349.425	1366.930	562.498	-93.463	1406.572	539.272	-341.304	1314.366	192.082	-22.946	1160.883	293.540	-404.303	1293.325	164.989	-96.118	1134.281	269.583	-331.450	1407.691	40.236	-138.735	1125.790	77.207	-318.153
	18	0.26667	1273.911	900.764	-195.134	1276.015	880.997	-129.839	1266.904	880.886	-279.993	1312.606	474.190	-129.425	1369.632	471.374	-293.423	1284.276	69.149	-154.685	1105.319	179.592	-284.414	1357.752	967.784	-210.216	1364.982	967.872	-91.062	1350.521	967.696	-329.371	1172.658	1009.352	-162.816	1173.317	1004.957	-248.610	1326.442	475.492	-72.599	1362.610	471.501	-350.996	1284.076	479.402	-183.077	1395.019	464.839	-234.455	1276.451	67.252	-115.504	1086.955	195.283	-315.033	1292.612	84.525	-182.785	1120.098	185.623	-258.756	1161.978	1430.920	-178.676	1290.613	1353.141	-135.549	1297.507	1366.379	-242.545	1276.726	1366.701	-186.048	1361.933	1206.896	-212.503	1370.707	578.371	-0.816	1507.889	594.873	-326.271	1372.044	646.869	-64.470	1420.391	631.101	-349.273	1370.638	561.608	-93.052	1423.084	543.445	-341.458	1315.028	191.861	-23.224	1183.400	291.315	-404.018	1293.617	165.039	-96.548	1157.663	266.724	-331.619	1408.026	40.143	-138.804	1155.746	75.507	-318.694
	19	0.27500	1283.005	901.590	-194.759	1284.892	881.239	-129.639	1276.281	882.017	-279.820	1315.614	474.094	-129.372	1387.135	473.922	-292.868	1284.792	69.186	-155.062	1131.386	174.666	-284.367	1366.903	968.492	-209.229	1373.732	967.874	-90.131	1360.074	969.109	-328.326	1181.427	1009.830	-162.552	1182.580	1005.926	-248.358	1329.194	475.156	-72.479	1380.263	473.897	-350.459	1287.136	479.425	-182.669	1411.312	468.462	-233.607	1276.784	67.312	-115.917	1112.597	189.854	-314.982	1292.988	84.321	-183.404	1145.961	181.209	-258.749	1171.789	1431.998	-178.177	1300.982	1354.171	-135.177	1307.204	1366.972	-241.870	1286.500	1367.373	-185.588	1371.839	1207.629	-211.833	1374.490	577.692	-0.540	1522.874	600.142	-325.357	1377.175	645.949	-64.158	1435.017	634.491	-349.021	1374.535	560.472	-92.494	1438.906	547.045	-340.802	1315.729	191.639	-23.545	1206.204	288.617	-403.736	1294.108	164.737	-97.313	1180.512	263.613	-331.452	1408.383	40.060	-138.863	1186.282	73.470	-318.905
	20	0.28333	1291.881	902.043	-194.487	1293.740	881.291	-129.511	1285.671	882.958	-279.714	1318.668	473.940	-129.280	1404.160	476.344	-292.250	1285.254	69.238	-155.432	1157.938	169.296	-284.281	1376.015	969.035	-208.284	1382.410	967.714	-89.235	1369.619	970.357	-327.334	1190.159	1010.093	-162.395	1191.785	1006.662	-248.192	1331.967	474.786	-72.319	1397.536	476.190	-349.870	1290.911	479.377	-182.609	1427.199	471.935	-232.217	1277.100	67.384	-116.315	1138.733	183.902	-314.922	1293.098	83.962	-183.913	1172.313	175.995	-258.770	1181.538	1432.688	-177.658	1310.786	1354.587	-134.462	1316.387	1366.887	-240.958	1296.214	1367.904	-185.066	1380.773	1207.511	-210.776	1378.245	576.990	-0.245	1537.488	605.163	-324.130	1381.902	645.188	-63.912	1449.418	637.491	-348.363	1378.538	559.764	-92.004	1454.365	550.461	-339.691	1316.520	191.397	-23.900	1229.290	285.495	-403.445	1295.185	164.302	-98.007	1203.997	259.842	-330.978	1408.747	39.992	-138.927	1217.350	71.168	-318.844
